<?xml version="1.0" standalone="no"?><!-- Generator: Gravit.io --><svg xmlns="http://www.w3.org/2000/svg" xmlns:xlink="http://www.w3.org/1999/xlink" style="isolation:isolate" viewBox="0 0 1440 900" width="1440" height="900"><defs><clipPath id="_clipPath_DlXiUHQMxkLBRpYH5X4bBxGGxmIdrywr"><rect width="1440" height="900"/></clipPath></defs><g clip-path="url(#_clipPath_DlXiUHQMxkLBRpYH5X4bBxGGxmIdrywr)"><defs><filter id="MW9mWONjh2TRZT6p0bFcmADfLgmdvned" x="600" y="351" width="285" height="148" filterUnits="userSpaceOnUse"><feGaussianBlur xmlns="http://www.w3.org/2000/svg" in="SourceGraphic" stdDeviation="2.146804531419514"/><feOffset xmlns="http://www.w3.org/2000/svg" dx="5" dy="5" result="pf_100_offsetBlur"/><feFlood xmlns="http://www.w3.org/2000/svg" flood-color="#000000" flood-opacity="0.65"/><feComposite xmlns="http://www.w3.org/2000/svg" in2="pf_100_offsetBlur" operator="in" result="pf_100_dropShadow"/><feBlend xmlns="http://www.w3.org/2000/svg" in="SourceGraphic" in2="pf_100_dropShadow" mode="normal"/></filter></defs><g filter="url(#MW9mWONjh2TRZT6p0bFcmADfLgmdvned)"><path d=" M 706.36 353 L 602 353 L 602 487 L 873 487 L 873 353 L 706.36 353" fill="rgb(253,246,227)"/></g><rect x="602" y="353" width="74" height="134" transform="matrix(1,0,0,1,0,0)" fill="rgb(88,110,117)"/><path d=" M 799 386.565 L 799 353 L 873 353 L 873 487 L 799 487 L 799 386.565" fill="rgb(88,110,117)"/><circle vector-effect="non-scaling-stroke" cx="0" cy="0" r="1" transform="matrix(6,0,0,6,639,420)" fill="rgb(0,43,54)"/><circle vector-effect="non-scaling-stroke" cx="0" cy="0" r="1" transform="matrix(6,0,0,6,836,420)" fill="rgb(0,43,54)"/><g transform="matrix(1,0,0,1,710.5,406.382)"><text transform="matrix(1,0,0,1,0,21.377)" style="font-family:&quot;Open Sans&quot;;font-weight:400;font-size:20px;font-style:normal;fill:#000000;stroke:none;">Value</text></g><g transform="matrix(1,0,0,1,617,379.146)"><text transform="matrix(1,0,0,1,0,21.377)" style="font-family:&quot;Open Sans&quot;;font-weight:400;font-size:20px;font-style:normal;fill:#000000;stroke:none;">prev</text></g><g transform="matrix(1,0,0,1,814,379.146)"><text transform="matrix(1,0,0,1,0,21.377)" style="font-family:&quot;Open Sans&quot;;font-weight:400;font-size:20px;font-style:normal;fill:#000000;stroke:none;">next</text></g><defs><filter id="g0q61wwCwtstilwfWkvxdvT4tKxj3SzI" x="985" y="351" width="285" height="148" filterUnits="userSpaceOnUse"><feGaussianBlur xmlns="http://www.w3.org/2000/svg" in="SourceGraphic" stdDeviation="2.146804531419514"/><feOffset xmlns="http://www.w3.org/2000/svg" dx="5" dy="5" result="pf_100_offsetBlur"/><feFlood xmlns="http://www.w3.org/2000/svg" flood-color="#000000" flood-opacity="0.65"/><feComposite xmlns="http://www.w3.org/2000/svg" in2="pf_100_offsetBlur" operator="in" result="pf_100_dropShadow"/><feBlend xmlns="http://www.w3.org/2000/svg" in="SourceGraphic" in2="pf_100_dropShadow" mode="normal"/></filter></defs><g filter="url(#g0q61wwCwtstilwfWkvxdvT4tKxj3SzI)"><path d=" M 1091.36 353 L 987 353 L 987 487 L 1258 487 L 1258 353 L 1091.36 353" fill="rgb(253,246,227)"/></g><rect x="987" y="353" width="74" height="134" transform="matrix(1,0,0,1,0,0)" fill="rgb(88,110,117)"/><path d=" M 1184 386.565 L 1184 353 L 1258 353 L 1258 487 L 1184 487 L 1184 386.565" fill="rgb(88,110,117)"/><circle vector-effect="non-scaling-stroke" cx="0" cy="0" r="1" transform="matrix(6,0,0,6,1024,420)" fill="rgb(0,43,54)"/><circle vector-effect="non-scaling-stroke" cx="0" cy="0" r="1" transform="matrix(6,0,0,6,1221,420)" fill="rgb(0,43,54)"/><g transform="matrix(1,0,0,1,1095.5,406.382)"><text transform="matrix(1,0,0,1,0,21.377)" style="font-family:&quot;Open Sans&quot;;font-weight:400;font-size:20px;font-style:normal;fill:#000000;stroke:none;">Value</text></g><g transform="matrix(1,0,0,1,1002,379.146)"><text transform="matrix(1,0,0,1,0,21.377)" style="font-family:&quot;Open Sans&quot;;font-weight:400;font-size:20px;font-style:normal;fill:#000000;stroke:none;">prev</text></g><g transform="matrix(1,0,0,1,1199,379.146)"><text transform="matrix(1,0,0,1,0,21.377)" style="font-family:&quot;Open Sans&quot;;font-weight:400;font-size:20px;font-style:normal;fill:#000000;stroke:none;">next</text></g><defs><filter id="sqbkBJtBGAknBv5ip6UK5RgQ5igySIVm" x="215" y="351" width="285" height="148" filterUnits="userSpaceOnUse"><feGaussianBlur xmlns="http://www.w3.org/2000/svg" in="SourceGraphic" stdDeviation="2.146804531419514"/><feOffset xmlns="http://www.w3.org/2000/svg" dx="5" dy="5" result="pf_100_offsetBlur"/><feFlood xmlns="http://www.w3.org/2000/svg" flood-color="#000000" flood-opacity="0.65"/><feComposite xmlns="http://www.w3.org/2000/svg" in2="pf_100_offsetBlur" operator="in" result="pf_100_dropShadow"/><feBlend xmlns="http://www.w3.org/2000/svg" in="SourceGraphic" in2="pf_100_dropShadow" mode="normal"/></filter></defs><g filter="url(#sqbkBJtBGAknBv5ip6UK5RgQ5igySIVm)"><path d=" M 321.36 353 L 217 353 L 217 487 L 488 487 L 488 353 L 321.36 353" fill="rgb(253,246,227)"/></g><rect x="217" y="353" width="74" height="134" transform="matrix(1,0,0,1,0,0)" fill="rgb(88,110,117)"/><path d=" M 414 386.565 L 414 353 L 488 353 L 488 487 L 414 487 L 414 386.565" fill="rgb(88,110,117)"/><circle vector-effect="non-scaling-stroke" cx="0" cy="0" r="1" transform="matrix(6,0,0,6,254,420)" fill="rgb(0,43,54)"/><circle vector-effect="non-scaling-stroke" cx="0" cy="0" r="1" transform="matrix(6,0,0,6,451,420)" fill="rgb(0,43,54)"/><g transform="matrix(1,0,0,1,325.5,406.382)"><text transform="matrix(1,0,0,1,0,21.377)" style="font-family:&quot;Open Sans&quot;;font-weight:400;font-size:20px;font-style:normal;fill:#000000;stroke:none;">Value</text></g><g transform="matrix(1,0,0,1,232,379.146)"><text transform="matrix(1,0,0,1,0,21.377)" style="font-family:&quot;Open Sans&quot;;font-weight:400;font-size:20px;font-style:normal;fill:#000000;stroke:none;">prev</text></g><g transform="matrix(1,0,0,1,429,379.146)"><text transform="matrix(1,0,0,1,0,21.377)" style="font-family:&quot;Open Sans&quot;;font-weight:400;font-size:20px;font-style:normal;fill:#000000;stroke:none;">next</text></g><line x1="451" y1="420" x2="617" y2="420" vector-effect="non-scaling-stroke" stroke-width="1" stroke="rgb(0,43,54)" stroke-linejoin="miter" stroke-linecap="square" stroke-miterlimit="3"/><polygon points="631,420.206,617.5,428,617.5,412.412" fill="rgb(0,43,54)"/><line x1="836" y1="420" x2="1002" y2="420" vector-effect="non-scaling-stroke" stroke-width="1" stroke="rgb(0,43,54)" stroke-linejoin="miter" stroke-linecap="square" stroke-miterlimit="3"/><polygon points="1016,420.206,1002.5,428,1002.5,412.412" fill="rgb(0,43,54)"/><line x1="1221" y1="419.794" x2="1261.578" y2="419.794" vector-effect="non-scaling-stroke" stroke-width="1" stroke="rgb(0,43,54)" stroke-linejoin="miter" stroke-linecap="square" stroke-miterlimit="3"/><polygon points="1275,420,1261.7,427.794,1261.7,412.206" fill="rgb(0,43,54)"/><line x1="209.422" y1="419.876" x2="250" y2="419.876" vector-effect="non-scaling-stroke" stroke-width="1" stroke="rgb(0,43,54)" stroke-linejoin="miter" stroke-linecap="square" stroke-miterlimit="3"/><polygon points="199.414,420.193,212.722,412.412,212.707,428" fill="rgb(0,43,54)"/><g transform="matrix(1,0,0,1,156,406.382)"><text transform="matrix(1,0,0,1,0,21.377)" style="font-family:&quot;Open Sans&quot;;font-weight:400;font-size:20px;font-style:normal;fill:#000000;stroke:none;">null</text></g><g transform="matrix(1,0,0,1,1285,406.382)"><text transform="matrix(1,0,0,1,0,21.377)" style="font-family:&quot;Open Sans&quot;;font-weight:400;font-size:20px;font-style:normal;fill:#000000;stroke:none;">null</text></g><g transform="matrix(1,0,0,1,1094.5,253.618)"><text transform="matrix(1,0,0,1,0,21.377)" style="font-family:&quot;Open Sans&quot;;font-weight:400;font-size:20px;font-style:normal;fill:#000000;stroke:none;">HEAD</text></g><g transform="matrix(1,0,0,1,337.5,253.618)"><text transform="matrix(1,0,0,1,0,21.377)" style="font-family:&quot;Open Sans&quot;;font-weight:400;font-size:20px;font-style:normal;fill:#000000;stroke:none;">TAIL</text></g><line x1="358.5" y1="283.609" x2="358.5" y2="371.755" vector-effect="non-scaling-stroke" stroke-width="1" stroke="rgb(0,43,54)" stroke-linejoin="miter" stroke-linecap="square" stroke-miterlimit="3"/><polygon points="358.5,389,349.966,374.218,367.034,374.218" fill="rgb(235,235,235)"/><polygon points="358.5,381.609,349.966,366.827,367.034,366.827" fill="rgb(0,43,54)"/><line x1="1122.5" y1="283.609" x2="1122.5" y2="371.755" vector-effect="non-scaling-stroke" stroke-width="1" stroke="rgb(0,43,54)" stroke-linejoin="miter" stroke-linecap="square" stroke-miterlimit="3"/><polygon points="1122.5,381.609,1113.966,366.827,1131.034,366.827" fill="rgb(0,43,54)"/></g></svg>